<svg width="252" height="64" viewBox="0 0 252 64" fill="none" xmlns="http://www.w3.org/2000/svg">
<path d="M51.1964 13.3325V26.5567H27.0419V50.6647H13.7921V23.7573C13.7921 18.0004 18.469 13.3325 24.237 13.3325H51.1964Z" fill="black"/>
<path d="M64.4462 26.5567V53.4641C64.4462 59.2232 59.7714 63.891 54.0013 63.891H27.0419L27.0419 50.6647L51.1964 50.6647L51.1964 26.5567L64.4462 26.5567Z" fill="black"/>
<path d="M64.4462 0.108269H51.1964L51.1964 13.3325H64.4462V0.108269Z" fill="black"/>
<path d="M13.7921 50.6668H0.542358V63.8911H13.7921V50.6668Z" fill="black"/>
<path d="M86.3637 40.6555C91.3373 40.6555 94.698 43.5177 94.7428 47.811H89.5451C89.5003 45.9326 88.2456 44.7251 86.1397 44.7251C83.989 44.7251 82.7345 45.7089 82.7345 47.3637C82.7345 48.6159 83.7202 49.4209 85.6021 49.8682L89.5899 50.8071C93.3089 51.6569 95.1909 53.3562 95.1909 56.7551C95.1909 61.2272 91.3822 64 85.9157 64C80.4044 64 76.9095 61.0482 76.9095 56.7103H82.1072C82.152 58.6333 83.5858 59.841 86.0949 59.841C88.649 59.841 90.038 58.8121 90.038 57.2022C90.0379 56.0842 89.4555 55.2795 87.4841 54.8322L83.4961 53.893C79.5083 52.9986 77.5816 51.1202 77.5816 47.5873C77.5816 43.2494 81.2557 40.6555 86.3637 40.6555ZM198.993 40.6555C204.953 40.6555 208.627 43.8753 208.627 50.0022V63.4185H203.833L203.429 60.1538C202.488 62.4347 199.486 64 196.036 64C191.331 64 188.464 61.2718 188.464 57.1128C188.464 53.0432 191.421 50.4943 196.663 50.0918L203.295 49.5997V49.1078C203.295 46.1114 201.502 44.9042 198.724 44.9042C195.498 44.9042 193.706 46.2456 193.706 48.5713H189.046C189.046 43.7862 192.989 40.6555 198.993 40.6555ZM240.567 40.6555C247.198 40.6555 251.41 45.0828 251.41 51.97V53.6247L234.742 53.6693C235.145 57.5601 237.206 59.5277 240.836 59.5277C241.503 59.5277 242.119 59.4701 242.681 59.3576V63.8838C242.061 63.9603 241.415 64 240.746 64C234.159 64 229.544 59.2146 229.544 52.3725C229.544 45.4407 234.07 40.6555 240.567 40.6555ZM109.883 40.7001C116.738 40.7001 121.712 45.4407 121.712 52.3276C121.712 59.2148 116.738 63.9554 109.883 63.9554C103.027 63.9554 98.0538 59.2148 98.0538 52.3276C98.0538 45.4407 103.027 40.7001 109.883 40.7001ZM134.561 30.1462C135.412 30.1462 136.442 30.1908 137.383 30.3696V35.0206H135.457C132.992 35.0206 132.365 36.4517 132.365 38.6431V41.3262H141.685V34.4395H147.151V41.3262H151.453V45.8877H147.151V63.4185H141.685V45.8877H132.365V63.4185H126.943V45.8877H123.762V41.3262H126.943V38.6431C126.943 32.6505 130.08 30.1462 134.561 30.1462ZM161.155 50.8071C161.648 52.5513 162.096 54.4743 162.499 56.5315C162.903 54.3849 163.306 52.9986 164.023 50.8071L167.07 41.3262H172.626L175.583 50.8071C175.852 51.7017 176.748 55.011 177.017 56.4867C177.375 54.8322 178.092 52.1936 178.496 50.8071L181.453 41.3262H187.233L179.571 63.4185H174.463L171.416 53.8481C170.52 50.9414 170.027 48.8396 169.848 47.7215C169.624 48.7501 169.22 50.3152 168.1 53.9376L165.053 63.4185H159.721L152.552 41.3262H158.243L161.155 50.8071ZM225.468 40.9237C226.23 40.9237 226.991 41.0134 227.887 41.2368V46.2904H225.871C221.928 46.2904 219.464 48.3925 219.464 52.6855V63.4185H213.997V41.3713H219.15L219.464 44.5909C220.405 42.3997 222.511 40.9237 225.468 40.9237ZM198.724 53.6693C195.319 53.9824 194.02 55.1004 194.02 56.8894C194.02 58.9018 195.364 59.8856 197.828 59.8856C201.189 59.8856 203.34 57.8732 203.34 54.4743V53.3114L198.724 53.6693ZM109.883 45.5749C106.119 45.5749 103.52 48.3028 103.52 52.3276C103.52 56.3527 106.119 59.0806 109.883 59.0806C113.647 59.0806 116.245 56.3527 116.245 52.3276C116.245 48.3028 113.647 45.5749 109.883 45.5749ZM251.478 56.3705V56.2633H251.5C251.493 56.2991 251.485 56.3349 251.478 56.3705ZM240.612 45.1276C237.386 45.1276 235.414 46.8718 234.876 50.181H245.988C245.988 47.14 243.883 45.1276 240.612 45.1276ZM86.3637 0C91.3374 0 94.698 2.86215 94.7428 7.15538H89.5451C89.5003 5.2771 88.2456 4.06969 86.1397 4.06969C83.989 4.06971 82.7345 5.05352 82.7345 6.70819C82.7345 7.96036 83.7202 8.76523 85.6021 9.21243L89.5899 10.1517C93.3089 11.0014 95.1909 12.7008 95.1909 16.0995C95.1909 20.5717 91.3822 23.3445 85.9157 23.3445C80.4044 23.3445 76.9095 20.3928 76.9095 16.0549H82.1072C82.152 17.9779 83.5858 19.1852 86.0949 19.1853C88.649 19.1853 90.038 18.1567 90.038 16.5468C90.038 15.4288 89.4556 14.6237 87.4841 14.1765L83.4961 13.2374C79.5083 12.343 77.5816 10.4647 77.5816 6.9318C77.5816 2.59387 81.2557 3.43815e-05 86.3637 0ZM175.457 0C181.506 0 185.628 3.3541 186.211 8.6759H180.744C180.117 6.17152 178.28 4.87451 175.681 4.87451C172.186 4.87451 169.856 7.5132 169.856 11.6722C169.856 15.8313 172.007 18.4251 175.502 18.4251C178.235 18.4251 180.162 17.0835 180.744 14.6686H186.256C185.584 19.8115 181.282 23.3445 175.502 23.3445C168.781 23.3445 164.39 18.6934 164.39 11.6722C164.39 4.82994 168.915 3.47754e-06 175.457 0ZM109.883 0.0446745C116.738 0.0446877 121.712 4.78523 121.712 11.6722C121.712 18.5593 116.738 23.2997 109.883 23.2997C103.027 23.2997 98.0538 18.5593 98.0538 11.6722C98.0538 4.78521 103.027 0.0446745 109.883 0.0446745ZM200.854 0.0446745C207.71 0.0446745 212.683 4.78521 212.683 11.6722C212.683 18.5593 207.71 23.2997 200.854 23.2997C193.999 23.2997 189.025 18.5593 189.025 11.6722C189.025 4.78521 193.999 0.0446812 200.854 0.0446745ZM132.002 7.60145C131.688 8.32677 131.511 9.20513 131.511 10.2411V22.7631H126.045V7.60145H132.002ZM151.989 0C157.366 3.66644e-05 160.323 3.21993 160.323 8.31806V22.7631H154.901V9.74922C154.901 6.57402 153.198 4.9194 150.6 4.9194C147.956 4.91942 145.94 6.61873 145.94 10.2411V22.7631H140.473V9.70454C140.473 6.6188 138.815 4.96408 136.216 4.96408C134.372 4.96408 132.777 5.81948 132.005 7.59401V2.57127C133.231 1.08273 135.286 0 138.053 0C141.414 3.4784e-05 143.744 1.65466 144.909 4.20369C146.029 1.65464 148.628 0 151.989 0ZM109.883 4.9194C106.119 4.9194 103.52 7.64736 103.52 11.6722C103.52 15.6971 106.119 18.4251 109.883 18.4251C113.647 18.4251 116.245 15.6971 116.245 11.6722C116.245 7.64736 113.647 4.91942 109.883 4.9194ZM200.854 4.9194C197.09 4.9194 194.492 7.64736 194.492 11.6722C194.492 15.6971 197.09 18.4251 200.854 18.4251C204.618 18.4251 207.217 15.6971 207.217 11.6722C207.217 7.64736 204.618 4.9194 200.854 4.9194Z" fill="black"/>
</svg>
